# xmcd
#
# Track frame offsets:
#	150
#	16328
#	29825
#	45607
#	59587
#	69831
#	83773
#	102308
#	117598
#	131394
#	141102
#	154092
#	173147
#	188003
#	202578
#	216864
#	229115
#	242244
#	254062
#	268353
#
# Disc length: 3775 seconds
#
# Revision: 0
# Processed by: cddbd v1.5.2PL0 Copyright (c) Steve Scherf et al.
# Submitted via: EasyCDDAExtractor 16.0.8.2
#
DISCID=240ebd14
DTITLE=Συλλογικός δίσκος - Όλα τα ρεμπέτικα 18
DYEAR=2008
DGENRE=Ρεμπέτικη
TTITLE0=Καζαντζίδης Στέλιος - Μπρος στο ρημαγμένο σπίτι [Β. Τσιτσάνης]
TTITLE1=Μπέλλου Σωτηρία - Ο πασάς [Απ. Χατζηχρήστος]
TTITLE2=Ιακωβίδης Αγάθωνας - Με ζουρνάδες και νταούλια [Παν. Τούντας]
TTITLE3=Μαριώ-Βόμβολος-Μητρέντζης-Ρούσσος - Μάμπο με τρελλές πενιές [Β. Τσιτσά
TTITLE3=νης]
TTITLE4=Κυριακής Γιάννης - Αθηναίϊσα [Αν. Δελιάς]
TTITLE5=Γλυκερία - Ντερβίσαινα [Β. Παπάζογλου]
TTITLE6=Κοντογιάννης Δημήτρης - Ο Μητσάκης [Γ. Μητσάκης]
TTITLE7=Πάνου Πόλυ - Δυό φίλοι Πειραιώτες[Σ.Χρυσίνης-Ν.Δεπάστας/Π.Πάνου]
TTITLE8=Ξηντάρης Γιώργος - Στα κλειστά παράθυρα [Μ. Χιώτης-Χρ. Κολοκοτρώνης]
TTITLE9=Βαμβακάρης Δομένικος-Βάλβη Βάκια - Μάγκικο, τα δυό σου μάτια [Μ. Βαμβα
TTITLE9=κάρης]
TTITLE10=Γκολές Μπάμπης - Αφ' ότου εγεννήθηκα [Δ. Καρυδάκης-Γ. Δερέμπεης]
TTITLE11=Γαλιάτσος Γιώργος - Αρμενίτσα [Κ. Καρίπης]
TTITLE12=Μπίνης Τάκης - Στα μονοπάτια της ζωής [Κ. Καπλάνης-Ευγ. Δρούζα]
TTITLE13=Γενίτσαρης Μιχάλης - Σαν ατζαμής την έπαθα [Μ. Γενίτσαρης]
TTITLE14=Κεφάλας Στέλιος - Κελί μου κατασκότεινο [Σ. Καζαντζίδης]
TTITLE15=Μουφλουζέλης Γιώργος - Φάτε μάτια ψάρια [Γ. Μουφλουζέλης]
TTITLE16=Νικολαΐδης Απόστολος - Ωραία μου μποέμισσα [Χρ. Κολοκοτρώνης]
TTITLE17=Ευσταθίου Δημήτρης - Η παραμυθατζού [Δ. Ευσταθίου]
TTITLE18=Περδικόπουλος Δημήτρης - Με λικέρ και με σαμπάνια [Β.Τσιτσάνης-Δ.Περδ
TTITLE18=ικόπουλος]
TTITLE19=Παπαϊωάννου Γιάννης - Ότα δω τα δυό σου μάτια [Γ. Παπαϊωάννου]
EXTD=
EXTT0=
EXTT1=
EXTT2=
EXTT3=
EXTT4=
EXTT5=
EXTT6=
EXTT7=
EXTT8=
EXTT9=
EXTT10=
EXTT11=
EXTT12=
EXTT13=
EXTT14=
EXTT15=
EXTT16=
EXTT17=
EXTT18=
EXTT19=
PLAYORDER=
